<svg xmlns="http://www.w3.org/2000/svg" xmlns:xlink="http://www.w3.org/1999/xlink" width="500" zoomAndPan="magnify" viewBox="0 0 375 374.999991" height="500" preserveAspectRatio="xMidYMid meet" version="1.0"><defs><clipPath id="0d55847945"><path d="M 187.5 0 C 83.945312 0 0 83.945312 0 187.5 C 0 291.054688 83.945312 375 187.5 375 C 291.054688 375 375 291.054688 375 187.5 C 375 83.945312 291.054688 0 187.5 0 Z M 187.5 0 " clip-rule="nonzero"/></clipPath><clipPath id="71f29e235d"><path d="M 0 0 L 375 0 L 375 375 L 0 375 Z M 0 0 " clip-rule="nonzero"/></clipPath><clipPath id="1b72b8024f"><path d="M 187.5 0 C 83.945312 0 0 83.945312 0 187.5 C 0 291.054688 83.945312 375 187.5 375 C 291.054688 375 375 291.054688 375 187.5 C 375 83.945312 291.054688 0 187.5 0 Z M 187.5 0 " clip-rule="nonzero"/></clipPath><clipPath id="bef255f68f"><rect x="0" width="375" y="0" height="375"/></clipPath></defs><g clip-path="url(#0d55847945)"><g transform="matrix(1, 0, 0, 1, 0, 0)"><g clip-path="url(#bef255f68f)"><g clip-path="url(#71f29e235d)"><g clip-path="url(#1b72b8024f)"><rect x="-82.5" width="540" fill="#ffffff" height="539.999987" y="-82.499998" fill-opacity="1"/></g></g></g></g></g><path fill="#000000" d="M 254.035156 94.472656 C 255.125 94.265625 255.125 94.265625 256.4375 94.277344 L 257.929688 94.277344 L 259.539062 94.304688 L 261.1875 94.3125 C 262.628906 94.320312 264.074219 94.335938 265.519531 94.351562 C 266.992188 94.371094 268.464844 94.378906 269.941406 94.386719 C 272.832031 94.40625 275.722656 94.433594 278.617188 94.472656 C 279.1875 96.953125 278.640625 98.890625 277.9375 101.292969 C 275.390625 109.164062 270.230469 115.605469 264.304688 121.238281 C 258.621094 126.289062 251.839844 129.753906 244.394531 131.34375 C 239.40625 132.242188 234.371094 132.1875 229.316406 132.261719 L 226.464844 132.3125 C 224.15625 132.351562 221.84375 132.390625 219.535156 132.421875 L 219.542969 133.34375 C 219.605469 142.066406 219.664062 150.789062 219.726562 159.511719 L 219.773438 166.332031 C 219.996094 197.125 219.996094 197.125 219.949219 210.148438 L 219.941406 212.742188 C 219.929688 216.160156 219.914062 219.578125 219.882812 222.996094 C 219.871094 224.328125 219.867188 225.660156 219.859375 226.992188 C 219.855469 227.847656 219.84375 228.707031 219.828125 229.566406 C 219.8125 235.304688 220.640625 241.175781 223.414062 246.273438 C 226.011719 250.410156 229.164062 253.765625 233.484375 256.113281 C 239.402344 258.929688 244.832031 259.53125 251.355469 259.136719 C 255.375 258.621094 259.339844 256.644531 262.625 254.308594 C 263.640625 253.53125 264.640625 252.742188 265.609375 251.90625 C 266.25 251.363281 266.25 251.363281 267.402344 250.585938 C 268.324219 250.601562 268.324219 250.601562 269.128906 251.015625 C 271.609375 252.785156 273.699219 255.144531 275.835938 257.304688 C 277.019531 258.476562 278.257812 259.5625 279.523438 260.644531 C 280.863281 261.828125 282.113281 263.101562 283.359375 264.382812 C 280.820312 269.171875 277.140625 272.410156 272.585938 275.273438 C 264.644531 280.035156 256.605469 283.234375 247.246094 283.503906 C 238.019531 283.628906 229.511719 281.347656 221.421875 276.964844 C 214.226562 272.902344 207.949219 267.078125 203.578125 260.070312 C 202.273438 260.652344 201.421875 261.285156 200.449219 262.324219 C 195.921875 266.980469 190.363281 270.511719 184.601562 273.441406 L 183.199219 274.160156 C 174.957031 278.167969 165.738281 280.472656 156.570312 280.773438 L 155.222656 280.824219 C 144.605469 281.035156 133.730469 279.144531 124.226562 274.304688 L 123.398438 273.894531 C 118.3125 271.398438 113.988281 268.175781 109.648438 264.546875 C 109.425781 264.359375 109.203125 264.175781 108.972656 263.984375 C 101.121094 257.292969 95.421875 248.527344 91.972656 238.84375 C 90.074219 233.269531 89.226562 227.832031 89.242188 221.957031 L 89.238281 220.8125 C 89.238281 219.578125 89.238281 218.34375 89.238281 217.105469 L 89.238281 214.519531 C 89.238281 212.71875 89.238281 210.917969 89.242188 209.117188 C 89.242188 206.808594 89.242188 204.496094 89.238281 202.183594 C 89.238281 200.40625 89.238281 198.628906 89.238281 196.851562 C 89.238281 196 89.238281 195.144531 89.238281 194.292969 C 89.238281 193.105469 89.238281 191.921875 89.242188 190.734375 L 89.238281 189.660156 C 89.242188 188.835938 89.265625 188.011719 89.296875 187.191406 L 89.726562 186.757812 C 90.734375 186.71875 91.746094 186.699219 92.753906 186.703125 L 93.722656 186.699219 C 94.804688 186.695312 95.886719 186.695312 96.96875 186.695312 L 99.28125 186.691406 C 101.386719 186.6875 103.492188 186.6875 105.59375 186.6875 C 107.351562 186.6875 109.105469 186.6875 110.859375 186.683594 C 115.003906 186.679688 119.144531 186.679688 123.289062 186.679688 C 127.5625 186.679688 131.835938 186.675781 136.109375 186.667969 C 139.773438 186.664062 143.441406 186.660156 147.109375 186.660156 C 149.300781 186.660156 151.488281 186.660156 153.679688 186.65625 C 155.742188 186.652344 157.804688 186.652344 159.867188 186.652344 C 160.625 186.65625 161.378906 186.652344 162.136719 186.652344 C 163.171875 186.648438 164.203125 186.648438 165.238281 186.652344 L 166.136719 186.644531 C 168.269531 186.660156 170.078125 186.972656 172.097656 187.621094 C 172.960938 188.914062 172.960938 188.914062 173.078125 189.8125 L 173.089844 190.855469 L 173.113281 192.042969 L 173.121094 193.320312 C 173.125 193.753906 173.128906 194.191406 173.132812 194.636719 C 173.136719 195.554688 173.140625 196.476562 173.144531 197.394531 C 173.148438 198.800781 173.167969 200.207031 173.191406 201.613281 C 173.195312 202.503906 173.199219 203.398438 173.199219 204.292969 L 173.226562 205.566406 C 173.21875 206.667969 173.183594 207.675781 172.960938 208.753906 C 172.027344 209.867188 172.027344 209.867188 170.804688 210.476562 C 169.132812 210.820312 167.546875 210.964844 165.839844 210.960938 L 164.445312 210.964844 L 162.933594 210.957031 L 161.328125 210.957031 C 159.878906 210.957031 158.429688 210.957031 156.980469 210.953125 C 155.464844 210.949219 153.949219 210.949219 152.433594 210.949219 C 149.566406 210.949219 146.695312 210.945312 143.828125 210.941406 C 140.5625 210.9375 137.296875 210.933594 134.03125 210.929688 C 127.3125 210.925781 120.59375 210.917969 113.878906 210.910156 C 113.863281 212.398438 113.855469 213.882812 113.847656 215.371094 L 113.832031 216.625 C 113.804688 224.0625 115.09375 231.097656 118.675781 237.675781 C 122.238281 243.476562 126.792969 248.058594 132.738281 251.359375 C 135.550781 252.859375 138.414062 253.996094 141.476562 254.898438 L 142.800781 255.3125 C 149.308594 257.046875 157.132812 256.941406 163.660156 255.34375 L 165.195312 254.898438 L 166.117188 254.636719 C 174.097656 252.347656 180.355469 248.460938 186.15625 242.539062 C 189.992188 238.164062 192.664062 232.488281 194.089844 226.867188 C 194.984375 222.003906 195.074219 217.210938 195.058594 212.285156 L 195.0625 209.902344 C 195.0625 207.765625 195.058594 205.632812 195.054688 203.496094 C 195.050781 201.25 195.050781 199 195.050781 196.753906 C 195.050781 192.984375 195.046875 189.210938 195.042969 185.441406 C 195.035156 181.097656 195.03125 176.75 195.035156 172.40625 C 195.035156 167.757812 195.03125 163.109375 195.027344 158.460938 L 195.023438 154.472656 C 195.023438 152.375 195.023438 150.273438 195.019531 148.175781 C 195.015625 147.410156 195.015625 146.644531 195.015625 145.882812 C 195.015625 141.375 194.886719 136.914062 194.523438 132.421875 C 188.019531 132.390625 181.519531 132.371094 175.019531 132.355469 C 172 132.347656 168.980469 132.339844 165.960938 132.324219 C 163.042969 132.308594 160.125 132.304688 157.203125 132.300781 C 156.09375 132.296875 154.988281 132.292969 153.878906 132.285156 C 145.015625 132.230469 136.339844 132.394531 128.335938 136.671875 C 123.167969 139.742188 120.292969 142.707031 117.328125 147.945312 L 116.53125 149.414062 L 115.765625 150.804688 L 115.101562 152.0625 C 114.308594 153.121094 114.308594 153.121094 113.277344 153.828125 C 111.082031 154.65625 109.078125 154.578125 106.753906 154.542969 L 105.3125 154.535156 C 103.800781 154.527344 102.289062 154.511719 100.78125 154.496094 C 99.753906 154.488281 98.726562 154.484375 97.699219 154.480469 C 95.183594 154.464844 92.671875 154.445312 90.160156 154.414062 C 90.222656 153.585938 90.285156 152.761719 90.351562 151.933594 L 90.457031 150.535156 C 91.066406 144.597656 94.433594 138.234375 97.839844 133.417969 C 104.636719 124.554688 112.433594 117.199219 122.835938 112.746094 C 135.691406 107.5625 149.226562 108.089844 162.832031 108.109375 C 165.332031 108.113281 167.832031 108.105469 170.335938 108.101562 C 177.75 108.085938 185.164062 108.082031 192.578125 108.082031 C 198.359375 108.085938 204.136719 108.082031 209.917969 108.066406 C 212.882812 108.058594 215.847656 108.058594 218.8125 108.066406 C 220.660156 108.070312 222.507812 108.066406 224.355469 108.058594 C 225.207031 108.058594 226.054688 108.058594 226.902344 108.0625 C 232.066406 108.089844 236.582031 107.648438 241.527344 106.117188 L 242.957031 105.683594 C 245.082031 105.011719 246.921875 104.21875 248.5625 102.683594 C 249.890625 101.082031 250.921875 99.296875 251.964844 97.5 L 252.742188 96.195312 L 253.285156 95.265625 Z M 254.035156 94.472656 " fill-opacity="1" fill-rule="nonzero"/></svg>